<svg width="25" height="24" viewBox="0 0 25 24" fill="none" xmlns="http://www.w3.org/2000/svg">
<path d="M12.3399 2.28567L12.5245 2.28738H12.5479L12.7136 2.2931C13.6165 2.32738 14.4885 2.48452 15.3119 2.74852L15.5102 2.81481C15.5759 2.83767 15.6416 2.86052 15.7062 2.8851L15.5959 2.8451C15.6645 2.8691 15.7331 2.89424 15.8011 2.91995L15.7062 2.8851C15.8883 2.95222 16.0684 3.02482 16.2462 3.10281L16.2176 3.09081C16.2851 3.11995 16.3519 3.14967 16.4182 3.18052L16.2468 3.10281C16.3211 3.13595 16.3953 3.16967 16.4685 3.20395L16.4182 3.1811C16.4982 3.21767 16.5782 3.25595 16.6571 3.29538L16.4685 3.20395C17.059 3.48168 17.62 3.81845 18.1428 4.2091L18.0125 4.1131C18.0668 4.15195 18.1211 4.19195 18.1742 4.23195L18.1433 4.2091C18.2011 4.25195 18.2588 4.29595 18.3159 4.34052L18.1742 4.23195C18.2382 4.28052 18.3022 4.3291 18.3651 4.37938L18.3159 4.34052C18.3902 4.39881 18.4633 4.45767 18.5359 4.51767L18.3651 4.37938C18.5652 4.53781 18.7591 4.70404 18.9462 4.87767L18.9108 4.8451C18.9633 4.89367 19.0153 4.94224 19.0673 4.99195L18.9462 4.87767C19.1278 5.04619 19.303 5.22155 19.4713 5.40338L19.6119 5.55881L19.6199 5.56795C19.9988 5.99652 20.3399 6.45824 20.6393 6.9491L20.7565 7.14624C20.9612 7.50046 21.1433 7.86729 21.3016 8.24452L21.2365 8.0931C21.335 8.31703 21.425 8.54462 21.5062 8.77538L21.4765 8.69195C21.5011 8.75938 21.5245 8.82738 21.5473 8.89538L21.5811 8.99595L21.6485 9.21309C21.8233 9.79747 21.9423 10.3971 22.0039 11.004L21.9953 10.9234C22.0039 11.0045 22.0125 11.0857 22.0188 11.1674L22.0039 11.004C22.066 11.6117 22.071 12.2239 22.0188 12.8325L22.0245 12.7645C22.0193 12.8297 22.0136 12.8948 22.0073 12.9594L22.0188 12.8325C21.9828 13.256 21.9193 13.6767 21.8285 14.092C21.7039 14.6594 21.5284 15.2144 21.3039 15.7502L21.3313 15.6834C21.1686 16.0803 20.9796 16.4659 20.7656 16.8377L20.7788 16.8148C20.4489 17.3921 20.0606 17.934 19.6199 18.432L19.6125 18.4405L19.5051 18.5594L19.3393 18.7365C19.2166 18.8637 19.0905 18.9876 18.9611 19.108L19.1119 18.9651C18.9275 19.1442 18.7361 19.3159 18.5382 19.48L18.5702 19.4537C18.4999 19.512 18.4296 19.5697 18.3582 19.6262L18.5382 19.48C17.9197 19.9928 17.2403 20.4273 16.5153 20.7737L16.5611 20.752C16.3965 20.8313 16.2298 20.906 16.0611 20.976L16.2451 20.8971C16.1788 20.9268 16.1119 20.9548 16.0451 20.9828L16.0611 20.976C15.9765 21.0114 15.8908 21.0457 15.8039 21.0788L16.0451 20.9828C15.9565 21.0194 15.8668 21.0548 15.7765 21.0885L15.8045 21.0782C15.7245 21.1085 15.6445 21.1382 15.5639 21.1662L15.7771 21.0885C15.6971 21.1188 15.6159 21.1485 15.5348 21.1765L15.5633 21.1662C14.4615 21.5531 13.2989 21.7379 12.1313 21.712L11.9662 21.7074C11.0834 21.6745 10.2092 21.5211 9.36791 21.2514L9.16791 21.1845C9.1029 21.162 9.03814 21.1387 8.97363 21.1148L9.08391 21.1548C9.01534 21.1308 8.94677 21.1057 8.87877 21.08L8.97363 21.1148C8.80103 21.0511 8.6303 20.9825 8.46163 20.9091L8.67648 21C8.59507 20.9668 8.51411 20.9325 8.43363 20.8971L8.4622 20.9091C8.395 20.88 8.32814 20.85 8.26163 20.8194L8.43305 20.8971C8.35877 20.864 8.28448 20.8302 8.21134 20.796L8.26163 20.8188C8.18162 20.7822 8.10163 20.7434 8.02163 20.7045L8.21134 20.796C7.62078 20.5182 7.05983 20.1815 6.53705 19.7908L6.66048 19.8822C6.60563 19.8422 6.55077 19.8022 6.49648 19.7611L6.53648 19.7908C6.46994 19.7412 6.40403 19.6907 6.33877 19.6394L6.49648 19.7611C6.43497 19.7146 6.37402 19.6673 6.31363 19.6194L6.33877 19.6394C6.27248 19.5874 6.20734 19.5342 6.1422 19.4805L6.31363 19.6194C6.11245 19.4601 5.91763 19.2929 5.72963 19.1182L5.76905 19.1548C5.71648 19.1062 5.66448 19.0577 5.61248 19.008L5.72963 19.1182C5.54941 18.9509 5.37557 18.7769 5.20848 18.5965L5.06791 18.4411L5.05991 18.432C4.67578 17.9976 4.33118 17.5298 4.0302 17.0342L3.91363 16.8377C3.71186 16.4866 3.53227 16.1232 3.37591 15.7497L3.44334 15.9068C3.34412 15.6812 3.25358 15.4519 3.17191 15.2194L3.2022 15.304C2.92854 14.5478 2.75059 13.7603 2.67248 12.96L2.68391 13.0651C2.67477 12.988 2.66734 12.9108 2.66105 12.8325L2.67248 12.96C2.61374 12.364 2.60992 11.764 2.66105 11.1674L2.65534 11.2354C2.66105 11.1582 2.66848 11.0811 2.67591 11.0045L2.66105 11.1674C2.69698 10.7439 2.76054 10.3232 2.85134 9.90795C2.97628 9.33849 3.15262 8.78155 3.3782 8.24395L3.36105 8.28681C3.52322 7.89468 3.71105 7.51366 3.92334 7.14624L4.03877 6.95138C4.33779 6.46128 4.6795 5.99853 5.05991 5.56852L5.06734 5.55938L5.20334 5.4091C5.33984 5.26154 5.48086 5.11824 5.6262 4.97938L5.56791 5.03481C5.68329 4.92277 5.80143 4.81359 5.9222 4.70738L5.86505 4.75824L5.9702 4.6651L5.9222 4.70738C5.98677 4.65024 6.05191 4.59481 6.11763 4.53938L5.9702 4.6651C6.02734 4.61595 6.08448 4.56681 6.14277 4.51881L6.30277 4.3891C6.36963 4.33595 6.43705 4.28338 6.50563 4.23195L6.39591 4.31595C6.69396 4.08498 7.00515 3.87148 7.32791 3.67652L7.15591 3.78338C7.36353 3.65194 7.57607 3.52842 7.79305 3.4131L7.77134 3.42452L7.9462 3.33367L7.79305 3.41367C7.87248 3.37138 7.95305 3.33024 8.03305 3.29024L7.9462 3.33367C8.03363 3.2891 8.12163 3.24624 8.2102 3.20452L8.03305 3.29024C8.11134 3.25138 8.18963 3.21367 8.26848 3.17767L8.2102 3.20452C8.27705 3.1731 8.34448 3.14224 8.41248 3.11252L8.26848 3.17767C8.33648 3.14624 8.40448 3.11538 8.47363 3.08567L8.67934 2.99881C8.75534 2.96795 8.83191 2.93824 8.90848 2.9091L8.69877 2.99081C9.85544 2.52244 11.092 2.28297 12.3399 2.28567ZM8.51134 16.1657L8.4182 16.2022C7.69688 16.5002 7.01188 16.8794 6.37648 17.3325C7.50673 18.5984 9.01056 19.4715 10.6702 19.8257C9.73861 18.7438 9.00754 17.5044 8.51134 16.1657ZM16.1691 16.1651L16.1605 16.1874C15.6644 17.518 14.936 18.7499 14.0091 19.8257C15.6688 19.4718 17.1729 18.5988 18.3033 17.3331C17.6408 16.8604 16.9244 16.4683 16.1691 16.1651ZM12.3399 15.4285C11.5896 15.4285 10.8582 15.5085 10.1536 15.6611C10.644 16.9468 11.3875 18.121 12.3399 19.1142C13.2921 18.1211 14.0355 16.9471 14.5262 15.6617C13.8078 15.5062 13.0749 15.428 12.3399 15.4285ZM5.37591 8.05938L5.29591 8.2051C4.6666 9.37085 4.33801 10.6752 4.33991 12C4.33991 13.4325 4.71705 14.7771 5.37591 15.9405C6.19736 15.3538 7.08979 14.8734 8.03191 14.5108C7.85616 13.6854 7.76786 12.8438 7.76848 12C7.76848 11.1388 7.85934 10.2982 8.03134 9.48852C7.08937 9.12625 6.19711 8.64605 5.37591 8.05938ZM19.3039 8.05938L19.1839 8.14395C18.3956 8.69245 17.5441 9.14408 16.6479 9.48909C16.8199 10.2982 16.9113 11.1388 16.9113 12C16.9113 12.8611 16.8205 13.7017 16.6485 14.5114C17.5905 14.8736 18.4827 15.3539 19.3039 15.9405C19.985 14.739 20.3421 13.3811 20.3399 12C20.3399 10.5674 19.9628 9.22281 19.3039 8.05938ZM15.0011 9.98909L14.8765 10.0171C14.0593 10.1931 13.2102 10.2857 12.3399 10.2857C11.4256 10.2857 10.5348 10.1834 9.67877 9.98967C9.54806 10.6518 9.48241 11.3251 9.48277 12C9.48277 12.688 9.5502 13.36 9.67934 14.0108C10.5524 13.8132 11.4448 13.7137 12.3399 13.7142C13.2542 13.7142 14.1451 13.8165 15.0011 14.0102C15.1296 13.3605 15.1971 12.688 15.1971 12C15.1971 11.312 15.1296 10.64 15.0005 9.98909H15.0011ZM12.3399 4.88567L12.2513 4.97938C11.3414 5.95265 10.6292 7.09339 10.1542 8.33824C10.8582 8.49081 11.5896 8.57138 12.3399 8.57138C13.0902 8.57138 13.8216 8.49138 14.5262 8.33881C14.0358 7.05309 13.2923 5.87886 12.3399 4.88567ZM10.6713 4.17424L10.6011 4.18967C8.96838 4.55307 7.49083 5.41945 6.37648 6.66681C7.03898 7.13955 7.75547 7.53165 8.51077 7.83481C9.00717 6.49579 9.73865 5.25615 10.6708 4.17424H10.6713ZM14.0096 4.17424L14.0896 4.26852C14.9835 5.32797 15.6869 6.53442 16.1685 7.83424C16.924 7.53161 17.6407 7.13989 18.3033 6.66738C17.1731 5.40155 15.6693 4.52835 14.0096 4.17424Z" fill="white"/>
</svg>
